<?xml version="1.0" encoding="UTF-8" standalone="no"?>
<!DOCTYPE svg PUBLIC "-//W3C//DTD SVG 1.1//EN" "http://www.w3.org/Graphics/SVG/1.1/DTD/svg11.dtd">
<svg width="100%" height="100%" viewBox="0 0 5000 5000" version="1.1" xmlns="http://www.w3.org/2000/svg" xmlns:xlink="http://www.w3.org/1999/xlink" xml:space="preserve" xmlns:serif="http://www.serif.com/" style="fill-rule:evenodd;clip-rule:evenodd;stroke-linejoin:round;stroke-miterlimit:2;">
    <rect id="ArtBoard1" x="0" y="0" width="5000" height="5000" style="fill:none;"/>
    <g id="ArtBoard11" serif:id="ArtBoard1">
        <g transform="matrix(1,0,0,1,3.48714,406.93)">
            <path d="M24.726,3217.14C24.726,3217.14 75.347,1803.3 691.427,753.239C1187.49,363.265 1817.58,297.256 1817.58,297.256L1877.58,401.27C1877.58,401.27 1284.16,509.388 800.828,976.895C1214.17,780.772 1657.55,517.285 2551.67,519.285C3445.79,521.286 3986.46,889.012 4178.48,970.942C3825.16,597.133 3316.93,447.354 3114.67,405.108C3151.79,342.38 3165.87,300.135 3165.87,300.135C3165.87,300.135 3683.45,333.118 4289.86,750.754C4770.47,1548.02 4918.29,2581.21 4968.3,3203.79C4393.39,3882.55 3505.61,3888.88 3505.61,3888.88L3328.09,3643.85C3328.09,3643.85 3945.67,3451.33 4293.21,2971.26C3688.13,3486.33 2885.53,3546.34 2643,3548.84C2400.46,3551.34 1432.84,3586.34 692.741,2986.27C1111.06,3481.26 1660.37,3646.35 1660.37,3646.35L1485.54,3888.67C1485.54,3888.67 602.879,3880.4 24.726,3217.14ZM3228.05,2770.55C3228.05,2770.55 2857.72,2788.78 2823.31,2310.69C2856.08,1850.83 3225.59,1857.46 3225.59,1857.46C3225.59,1857.46 3596.74,1872.37 3615.58,2314C3600.83,2768.89 3228.05,2770.55 3228.05,2770.55ZM1769.83,2767.99C1769.83,2767.99 1399.5,2786.02 1365.09,2313.28C1397.86,1858.56 1767.37,1865.12 1767.37,1865.12C1767.37,1865.12 2138.52,1879.87 2157.36,2316.56C2142.61,2766.36 1769.83,2767.99 1769.83,2767.99Z" style="fill:rgb(179,179,179);"/>
        </g>
    </g>
</svg>
