<?xml version="1.0" encoding="UTF-8" standalone="no"?>
<!DOCTYPE svg PUBLIC "-//W3C//DTD SVG 1.1//EN" "http://www.w3.org/Graphics/SVG/1.1/DTD/svg11.dtd">
<svg width="100%" height="100%" viewBox="0 0 3475 3476" version="1.1" xmlns="http://www.w3.org/2000/svg" xmlns:xlink="http://www.w3.org/1999/xlink" xml:space="preserve" xmlns:serif="http://www.serif.com/" style="fill-rule:evenodd;clip-rule:evenodd;stroke-linejoin:round;stroke-miterlimit:2;">
    <g transform="matrix(1,0,0,1,-762.711,-762.494)">
        <g id="_150-cogs" serif:id="150-cogs" transform="matrix(217.161,0,0,217.161,762.711,762.928)">
            <path d="M5.683,11.282L6.328,10.379L5.621,9.672L4.718,10.317C4.55,10.223 4.371,10.149 4.183,10.095L4,9L3,9L2.817,10.095C2.629,10.148 2.449,10.223 2.282,10.317L1.379,9.672L0.672,10.379L1.317,11.282C1.223,11.45 1.149,11.629 1.095,11.817L0,12L0,13L1.095,13.183C1.148,13.371 1.223,13.551 1.317,13.718L0.672,14.621L1.379,15.328L2.282,14.683C2.45,14.777 2.629,14.851 2.817,14.905L3,16L4,16L4.183,14.905C4.371,14.852 4.551,14.777 4.718,14.683L5.621,15.328L6.328,14.621L5.683,13.718C5.777,13.55 5.851,13.371 5.905,13.183L7,13.001L7,12.001L5.905,11.818C5.852,11.63 5.777,11.45 5.683,11.283L5.683,11.282ZM3.5,13.5C2.948,13.5 2.5,13.052 2.5,12.5C2.5,11.948 2.948,11.5 3.5,11.5C4.052,11.5 4.5,11.948 4.5,12.5C4.5,13.052 4.052,13.5 3.5,13.5ZM16,6L16,5L14.947,4.809C14.928,4.683 14.903,4.559 14.873,4.437L15.772,3.857L15.389,2.933L14.343,3.159C14.277,3.051 14.207,2.946 14.132,2.844L14.741,1.964L14.034,1.257L13.154,1.866C13.052,1.792 12.947,1.721 12.839,1.655L13.065,0.609L12.141,0.226L11.561,1.125C11.439,1.095 11.315,1.071 11.189,1.051L10.998,-0.002L9.998,-0.002L9.807,1.051C9.681,1.07 9.557,1.095 9.435,1.125L8.855,0.226L7.931,0.609L8.157,1.655C8.049,1.721 7.944,1.791 7.842,1.866L6.962,1.257L6.255,1.964L6.864,2.844C6.79,2.946 6.719,3.051 6.653,3.159L5.607,2.933L5.224,3.857L6.123,4.437C6.093,4.559 6.069,4.683 6.049,4.809L4.996,5L4.996,6L6.049,6.191C6.068,6.317 6.093,6.441 6.123,6.563L5.224,7.143L5.607,8.067L6.653,7.841C6.719,7.949 6.789,8.054 6.864,8.156L6.255,9.036L6.962,9.743L7.842,9.134C7.944,9.208 8.049,9.279 8.157,9.345L7.931,10.391L8.855,10.774L9.435,9.875C9.557,9.905 9.681,9.929 9.807,9.949L9.998,11.002L10.998,11.002L11.189,9.949C11.315,9.93 11.439,9.905 11.561,9.875L12.141,10.774L13.065,10.391L12.839,9.345C12.947,9.279 13.052,9.209 13.154,9.134L14.034,9.743L14.741,9.036L14.132,8.156C14.206,8.054 14.277,7.949 14.343,7.841L15.389,8.067L15.772,7.143L14.873,6.563C14.903,6.441 14.927,6.317 14.947,6.191L16,6ZM10.5,7.675C9.299,7.675 8.325,6.701 8.325,5.5C8.325,4.299 9.299,3.325 10.5,3.325C11.701,3.325 12.675,4.299 12.675,5.5C12.675,6.701 11.701,7.675 10.5,7.675Z" style="fill:rgb(190,190,190);fill-rule:nonzero;"/>
        </g>
    </g>
</svg>
