<?xml version="1.0" encoding="UTF-8" standalone="no"?>
<!DOCTYPE svg PUBLIC "-//W3C//DTD SVG 1.1//EN" "http://www.w3.org/Graphics/SVG/1.1/DTD/svg11.dtd">
<svg width="100%" height="100%" viewBox="0 0 2557 2970" version="1.1" xmlns="http://www.w3.org/2000/svg" xmlns:xlink="http://www.w3.org/1999/xlink" xml:space="preserve" xmlns:serif="http://www.serif.com/" style="fill-rule:evenodd;clip-rule:evenodd;stroke-linecap:round;stroke-linejoin:round;stroke-miterlimit:1.5;">
    <g transform="matrix(1,0,0,1,-1230.04,-1068.39)">
        <path d="M1446.92,1908.12C1650.77,1469.82 1955.98,1181.8 2303.95,1112.17L2255.71,1389.33C2425.64,1182.96 2690.74,1071.56 3051.82,1072.28C3603.9,1022.38 3788.96,1530.52 3785.82,2084.05C3780.23,3067.9 3243,3950.21 2723.79,3974.59L2777.69,3697.91C2619.46,3911.64 2375.78,4029.08 2070.46,4037.35C1595.55,4050.22 1229.15,3573.12 1230.55,2876.34C1233.35,2564.04 1295.79,2233.07 1446.92,1908.12ZM2154.16,1965.62C2267.49,1823.46 2422.21,1749.89 2626.89,1759.11C2876.82,1763.73 3032.7,1829.85 3079.06,1967.58L2870.96,3153.54C2764.97,3265.32 2584.33,3331.02 2391.99,3335.84C2194.36,3340.8 2018.52,3278.16 1943.17,3148.55L2154.16,1965.62Z" style="fill:rgb(149,149,149);stroke:black;stroke-width:1px;"/>
    </g>
</svg>
