<?xml version="1.0" encoding="UTF-8" standalone="no"?>
<!DOCTYPE svg PUBLIC "-//W3C//DTD SVG 1.1//EN" "http://www.w3.org/Graphics/SVG/1.1/DTD/svg11.dtd">
<svg width="100%" height="100%" viewBox="0 0 4802 4802" version="1.1" xmlns="http://www.w3.org/2000/svg" xmlns:xlink="http://www.w3.org/1999/xlink" xml:space="preserve" xmlns:serif="http://www.serif.com/" style="fill-rule:evenodd;clip-rule:evenodd;stroke-linejoin:round;stroke-miterlimit:2;">
    <g transform="matrix(1,0,0,1,-99.019,-99.0214)">
        <g id="instagram" transform="matrix(240.098,0,0,240.098,-381.177,-381.18)">
            <path d="M7.8,2L16.2,2C19.403,2 22,4.597 22,7.8L22,16.2C22,19.403 19.403,22 16.2,22L7.8,22C4.597,22 2,19.403 2,16.2L2,7.8C2,4.597 4.597,2 7.8,2ZM7.6,4C5.612,4 4,5.612 4,7.6L4,16.4C4,18.388 5.612,20 7.6,20L16.4,20C18.388,20 20,18.388 20,16.4L20,7.6C20,5.612 18.388,4 16.4,4L7.6,4ZM17.25,5.5C17.94,5.5 18.5,6.06 18.5,6.75C18.5,7.44 17.94,8 17.25,8C16.56,8 16,7.44 16,6.75C16,6.06 16.56,5.5 17.25,5.5ZM12,7C14.761,7 17,9.239 17,12C17,14.761 14.761,17 12,17C9.239,17 7,14.761 7,12C7,9.239 9.239,7 12,7ZM12,9C10.343,9 9,10.343 9,12C9,13.657 10.343,15 12,15C13.657,15 15,13.657 15,12C15,10.343 13.657,9 12,9Z" style="fill:rgb(190,190,190);fill-rule:nonzero;"/>
        </g>
    </g>
</svg>
