<?xml version="1.0" encoding="UTF-8" standalone="no"?>
<!DOCTYPE svg PUBLIC "-//W3C//DTD SVG 1.1//EN" "http://www.w3.org/Graphics/SVG/1.1/DTD/svg11.dtd">
<svg width="100%" height="100%" viewBox="0 0 5000 5000" version="1.1" xmlns="http://www.w3.org/2000/svg" xmlns:xlink="http://www.w3.org/1999/xlink" xml:space="preserve" xmlns:serif="http://www.serif.com/" style="fill-rule:evenodd;clip-rule:evenodd;stroke-linejoin:round;stroke-miterlimit:2;">
    <rect id="ArtBoard1" x="0" y="0" width="5000" height="5000" style="fill:none;"/>
    <g id="ArtBoard11" serif:id="ArtBoard1">
        <g id="open-book" transform="matrix(249.548,0,0,249.548,4.39556,-25.4506)">
            <path d="M10.595,5.196L11.041,6.567C11.41,6.251 11.876,5.968 12.482,5.772C13.072,5.58 13.593,5.472 14.064,5.41L13.634,4.087C13.158,4.156 12.633,4.267 12.054,4.455C11.475,4.643 10.999,4.905 10.595,5.196ZM11.522,8.051L11.968,9.422C12.337,9.106 12.803,8.823 13.409,8.627C13.999,8.435 14.52,8.327 14.991,8.265L14.561,6.942C14.085,7.011 13.56,7.122 12.981,7.31C12.403,7.497 11.927,7.759 11.522,8.051ZM12.45,10.905L12.896,12.276C13.265,11.96 13.731,11.677 14.337,11.481C14.927,11.289 15.448,11.181 15.919,11.119L15.489,9.796C15.013,9.865 14.488,9.976 13.909,10.164C13.33,10.351 12.854,10.614 12.45,10.905ZM5.388,13.077L5.818,14.4C6.235,14.174 6.72,13.955 7.31,13.764C7.916,13.567 8.459,13.522 8.943,13.561L8.497,12.19C7.998,12.192 7.459,12.26 6.882,12.447C6.303,12.635 5.813,12.853 5.388,13.077ZM3.533,7.368L3.963,8.691C4.38,8.465 4.865,8.247 5.455,8.055C6.061,7.858 6.604,7.813 7.088,7.852L6.643,6.48C6.144,6.483 5.605,6.55 5.027,6.738C4.448,6.926 3.958,7.144 3.533,7.368ZM4.46,10.223L4.89,11.546C5.307,11.32 5.792,11.101 6.382,10.91C6.988,10.713 7.531,10.668 8.015,10.707L7.57,9.335C7.071,9.337 6.532,9.405 5.955,9.592C5.376,9.78 4.885,9.999 4.46,10.223ZM11.064,1.41C9.341,1.97 8.441,3.162 8.011,3.969C7.189,3.569 5.761,3.134 4.038,3.694C1.515,4.514 0.069,6.321 0.069,6.321L4.164,18.908C4.29,19.295 4.81,19.385 5.042,19.051C5.541,18.332 6.502,17.393 8.299,16.809C10.017,16.251 11.268,16.863 11.954,17.387C12.226,17.595 12.616,17.447 12.716,17.119C12.968,16.292 13.623,15.079 15.326,14.526C17.125,13.941 18.455,14.137 19.282,14.426C19.667,14.56 20.032,14.184 19.907,13.797L15.819,1.203C15.819,1.203 13.587,0.591 11.064,1.41ZM10.951,15.256C10.132,15.012 9.05,14.898 7.81,15.3C6.559,15.706 5.683,16.249 5.111,16.704L1.866,6.722C2.224,6.364 3.053,5.68 4.528,5.201C5.917,4.75 7.056,5.136 7.807,5.579L10.951,15.256ZM17.845,12.567C17.114,12.535 16.086,12.611 14.835,13.018C13.595,13.421 12.787,14.15 12.268,14.828L9.124,5.151C9.47,4.351 10.164,3.369 11.554,2.918C13.028,2.439 14.101,2.505 14.601,2.584L17.845,12.567Z" style="fill:rgb(190,190,190);fill-rule:nonzero;"/>
        </g>
    </g>
</svg>
