<?xml version="1.0" encoding="UTF-8" standalone="no"?>
<!DOCTYPE svg PUBLIC "-//W3C//DTD SVG 1.1//EN" "http://www.w3.org/Graphics/SVG/1.1/DTD/svg11.dtd">
<svg width="100%" height="100%" viewBox="0 0 5000 5000" version="1.1" xmlns="http://www.w3.org/2000/svg" xmlns:xlink="http://www.w3.org/1999/xlink" xml:space="preserve" xmlns:serif="http://www.serif.com/" style="fill-rule:evenodd;clip-rule:evenodd;stroke-linejoin:round;stroke-miterlimit:2;">
    <rect id="ArtBoard1" x="0" y="0" width="5000" height="5000" style="fill:none;"/>
    <g id="ArtBoard11" serif:id="ArtBoard1">
        <g id="team.svg" transform="matrix(1,0,0,1,2500,2500)">
            <g transform="matrix(1,0,0,1,-2463,-1657.5)">
                <g transform="matrix(1.06282,0,0,1.06282,-230.383,-869.396)">
                    <g id="Ebene1">
                        <g id="ion-person-stalker" transform="matrix(129.939,0,0,129.939,1212.55,298.644)">
                            <path d="M24.563,20.313C27.188,21.313 27.813,21.938 27.876,22.376C28.001,22.939 28.001,28.001 28.001,28.001L21.876,28.001C21.876,26.876 21.876,23.563 21.813,23.188C21.75,22.563 21.75,21.375 18.375,20.063C17.875,19.875 17.5,19.75 17.187,19.625C18.312,19.125 18.125,18.687 18.125,17.875C18.125,16.687 17.562,17.187 17.187,14.937C17.062,14.062 16.937,14.624 16.624,13.187C16.436,12.437 16.687,12.437 16.687,12.062C16.687,11.687 16.624,11.437 16.562,10.687C16.499,9.812 17.25,7.437 20.125,7.437C23,7.437 23.813,9.812 23.75,10.687C23.687,11.437 23.625,11.687 23.625,12.062C23.562,12.437 23.875,12.437 23.688,13.187C23.375,14.625 23.25,14.062 23.125,14.937C22.75,17.187 22.125,16.687 22.125,17.875C22.125,19.688 22,19.313 24.563,20.313ZM20.314,28L0,28C0,28 0,23.937 0.125,23.187C0.25,22.562 1.063,21.812 4.438,20.499C7.813,19.249 7.563,19.436 7.563,17.061C7.563,15.561 6.813,16.561 6.313,13.686C6.125,12.561 6,13.248 5.625,11.436C5.437,10.498 5.75,10.436 5.688,9.998C5.626,9.56 5.563,9.123 5.5,8.185C5.375,6.997 6.438,3.997 10.125,3.997C13.812,3.997 14.938,7.06 14.813,8.185C14.75,9.123 14.688,9.56 14.625,9.998C14.562,10.436 14.938,10.498 14.75,11.436C14.375,13.249 14.187,12.561 14,13.686C13.5,16.561 12.75,15.561 12.75,17.061C12.75,19.061 12.625,19.311 14.688,20.061C15.063,20.186 15.376,20.311 15.876,20.499C19.251,21.812 20.064,22.562 20.189,23.187C20.252,23.562 20.314,24.937 20.314,26.125L20.314,28Z" style="fill:rgb(190,190,190);fill-rule:nonzero;"/>
                        </g>
                        <g id="ion-person-stalker1" serif:id="ion-person-stalker" transform="matrix(-129.939,0,0,129.939,3855.19,298.644)">
                            <path d="M24.563,20.313C27.188,21.313 27.813,21.938 27.876,22.376C28.001,22.939 28.001,28.001 28.001,28.001L21.876,28.001C21.876,26.876 21.876,23.563 21.813,23.188C21.75,22.563 21.75,21.375 18.375,20.063C17.875,19.875 17.5,19.75 17.187,19.625C18.312,19.125 18.125,18.687 18.125,17.875C18.125,16.687 17.562,17.187 17.187,14.937C17.062,14.062 16.937,14.624 16.624,13.187C16.436,12.437 16.687,12.437 16.687,12.062C16.687,11.687 16.624,11.437 16.562,10.687C16.499,9.812 17.25,7.437 20.125,7.437C23,7.437 23.813,9.812 23.75,10.687C23.687,11.437 23.625,11.687 23.625,12.062C23.562,12.437 23.875,12.437 23.688,13.187C23.375,14.625 23.25,14.062 23.125,14.937C22.75,17.187 22.125,16.687 22.125,17.875C22.125,19.688 22,19.313 24.563,20.313ZM20.314,28L0,28C0,28 0,23.937 0.125,23.187C0.25,22.562 1.063,21.812 4.438,20.499C7.813,19.249 7.563,19.436 7.563,17.061C7.563,15.561 6.813,16.561 6.313,13.686C6.125,12.561 6,13.248 5.625,11.436C5.437,10.498 5.75,10.436 5.688,9.998C5.626,9.56 5.563,9.123 5.5,8.185C5.375,6.997 6.438,3.997 10.125,3.997C13.812,3.997 14.938,7.06 14.813,8.185C14.75,9.123 14.688,9.56 14.625,9.998C14.562,10.436 14.938,10.498 14.75,11.436C14.375,13.249 14.187,12.561 14,13.686C13.5,16.561 12.75,15.561 12.75,17.061C12.75,19.061 12.625,19.311 14.688,20.061C15.063,20.186 15.376,20.311 15.876,20.499C19.251,21.812 20.064,22.562 20.189,23.187C20.252,23.562 20.314,24.937 20.314,26.125L20.314,28Z" style="fill:rgb(190,190,190);fill-rule:nonzero;"/>
                        </g>
                    </g>
                </g>
            </g>
        </g>
    </g>
</svg>
