<?xml version="1.0" encoding="UTF-8" standalone="no"?>
<!DOCTYPE svg PUBLIC "-//W3C//DTD SVG 1.1//EN" "http://www.w3.org/Graphics/SVG/1.1/DTD/svg11.dtd">
<svg width="100%" height="100%" viewBox="0 0 4870 3955" version="1.1" xmlns="http://www.w3.org/2000/svg" xmlns:xlink="http://www.w3.org/1999/xlink" xml:space="preserve" xmlns:serif="http://www.serif.com/" style="fill-rule:evenodd;clip-rule:evenodd;stroke-linejoin:round;stroke-miterlimit:2;">
    <g transform="matrix(1,0,0,1,-65.4316,-522.605)">
        <g id="twitter" transform="matrix(197.739,0,0,197.739,-70.6131,-268.155)">
            <path d="M25.312,6.375C24.624,7.375 23.765,8.266 22.781,8.984C22.797,9.203 22.797,9.422 22.797,9.64C22.797,16.312 17.719,23.999 8.438,23.999C5.579,23.999 2.922,23.171 0.688,21.733C1.094,21.78 1.485,21.796 1.907,21.796C4.266,21.796 6.438,20.999 8.173,19.64C5.954,19.593 4.095,18.14 3.454,16.14C3.767,16.187 4.079,16.218 4.407,16.218C4.86,16.218 5.313,16.155 5.735,16.046C3.423,15.577 1.688,13.546 1.688,11.093L1.688,11.03C2.36,11.405 3.141,11.639 3.969,11.671C2.61,10.765 1.719,9.218 1.719,7.468C1.719,6.53 1.969,5.671 2.407,4.921C4.891,7.983 8.626,9.984 12.813,10.202C12.735,9.827 12.688,9.436 12.688,9.046C12.688,6.265 14.938,3.999 17.735,3.999C19.188,3.999 20.501,4.608 21.422,5.593C22.563,5.374 23.656,4.952 24.625,4.374C24.25,5.546 23.453,6.53 22.406,7.155C23.422,7.046 24.406,6.764 25.312,6.374L25.312,6.375Z" style="fill:rgb(190,190,190);fill-rule:nonzero;"/>
        </g>
    </g>
</svg>
